<svg width="25" height="25" viewBox="0 0 25 25" fill="none" xmlns="http://www.w3.org/2000/svg">
<path d="M22.5 8.75V4.2625L14.2625 12.5L22.5 20.7375V16.25C22.5 15.9185 22.6317 15.6005 22.8661 15.3661C23.1005 15.1317 23.4185 15 23.75 15C24.0815 15 24.3995 15.1317 24.6339 15.3661C24.8683 15.6005 25 15.9185 25 16.25V23.75C25 24.0815 24.8683 24.3995 24.6339 24.6339C24.3995 24.8683 24.0815 25 23.75 25H16.25C15.9185 25 15.6005 24.8683 15.3661 24.6339C15.1317 24.3995 15 24.0815 15 23.75C15 23.4185 15.1317 23.1005 15.3661 22.8661C15.6005 22.6317 15.9185 22.5 16.25 22.5H20.7375L12.5 14.2625L4.2625 22.5H8.75C9.08152 22.5 9.39946 22.6317 9.63388 22.8661C9.8683 23.1005 10 23.4185 10 23.75C10 24.0815 9.8683 24.3995 9.63388 24.6339C9.39946 24.8683 9.08152 25 8.75 25H1.25C0.918479 25 0.600537 24.8683 0.366116 24.6339C0.131696 24.3995 0 24.0815 0 23.75V16.25C0 15.9185 0.131696 15.6005 0.366116 15.3661C0.600537 15.1317 0.918479 15 1.25 15C1.58152 15 1.89946 15.1317 2.13388 15.3661C2.3683 15.6005 2.5 15.9185 2.5 16.25V20.7375L10.7375 12.5L2.5 4.2625V8.75C2.5 9.08152 2.3683 9.39946 2.13388 9.63388C1.89946 9.8683 1.58152 10 1.25 10C0.918479 10 0.600537 9.8683 0.366116 9.63388C0.131696 9.39946 0 9.08152 0 8.75V1.25C0 0.918479 0.131696 0.600537 0.366116 0.366116C0.600537 0.131696 0.918479 0 1.25 0H8.75C9.08152 0 9.39946 0.131696 9.63388 0.366116C9.8683 0.600537 10 0.918479 10 1.25C10 1.58152 9.8683 1.89946 9.63388 2.13388C9.39946 2.3683 9.08152 2.5 8.75 2.5H4.2625L12.5 10.7375L20.7375 2.5H16.25C15.9185 2.5 15.6005 2.3683 15.3661 2.13388C15.1317 1.89946 15 1.58152 15 1.25C15 0.918479 15.1317 0.600537 15.3661 0.366116C15.6005 0.131696 15.9185 0 16.25 0H23.75C24.0815 0 24.3995 0.131696 24.6339 0.366116C24.8683 0.600537 25 0.918479 25 1.25V8.75C25 9.08152 24.8683 9.39946 24.6339 9.63388C24.3995 9.8683 24.0815 10 23.75 10C23.4185 10 23.1005 9.8683 22.8661 9.63388C22.6317 9.39946 22.5 9.08152 22.5 8.75Z" fill="black"/>
</svg>
