{
  "accessors": [
    {
      "bufferView": 2,
      "componentType": 5126,
      "count": 721,
      "max": [
        0.0008181090233847499,
        0.015586700290441513,
        -0.07364889979362488
      ],
      "min": [
        -0.0008181090233847499,
        0.013992399908602238,
        -0.0740170031785965
      ],
      "type": "VEC3"
    },
    {
      "bufferView": 2,
      "byteOffset": 8652,
      "componentType": 5126,
      "count": 721,
      "max": [
        0.1920209676027298,
        0.3954530954360962,
        -0.9184862375259399
      ],
      "min": [
        -0.1920209676027298,
        0.02015179954469204,
        -0.999796986579895
      ],
      "type": "VEC3"
    },
    {
      "bufferView": 0,
      "componentType": 5125,
      "count": 3888,
      "type": "SCALAR"
    },
    {
      "bufferView": 2,
      "byteOffset": 17304,
      "componentType": 5126,
      "count": 20740,
      "max": [
        0.10039400309324265,
        -0.02800000086426735,
        0.10879699885845184
      ],
      "min": [
        -0.10080499947071075,
        -0.0333126001060009,
        -0.07620470225811005
      ],
      "type": "VEC3"
    },
    {
      "bufferView": 2,
      "byteOffset": 266184,
      "componentType": 5126,
      "count": 20740,
      "max": [
        0.9999876618385315,
        0.0011153494706377387,
        0.9999897480010986
      ],
      "min": [
        -0.9999996423721313,
        -0.9999692440032959,
        -0.9998602271080017
      ],
      "type": "VEC3"
    },
    {
      "bufferView": 1,
      "componentType": 5126,
      "count": 20740,
      "max": [
        0.0,
        0.0
      ],
      "min": [
        0.0,
        0.0
      ],
      "type": "VEC2"
    },
    {
      "bufferView": 0,
      "byteOffset": 15552,
      "componentType": 5125,
      "count": 122688,
      "type": "SCALAR"
    },
    {
      "bufferView": 2,
      "byteOffset": 515064,
      "componentType": 5126,
      "count": 258,
      "max": [
        0.023486999794840813,
        -0.01412499975413084,
        -0.008344469591975212
      ],
      "min": [
        -0.023486999794840813,
        -0.015942899510264397,
        -0.020999999716877937
      ],
      "type": "VEC3"
    },
    {
      "bufferView": 2,
      "byteOffset": 518160,
      "componentType": 5126,
      "count": 258,
      "max": [
        0.19456708431243896,
        -0.9806565046310425,
        -0.008654586970806122
      ],
      "min": [
        -0.19456708431243896,
        -0.9999626278877258,
        -0.02178049460053444
      ],
      "type": "VEC3"
    },
    {
      "bufferView": 0,
      "byteOffset": 506304,
      "componentType": 5125,
      "count": 750,
      "type": "SCALAR"
    },
    {
      "bufferView": 2,
      "byteOffset": 521256,
      "componentType": 5126,
      "count": 9456,
      "max": [
        0.13807299733161926,
        -0.004999999888241291,
        0.1691969931125641
      ],
      "min": [
        -0.15298500657081604,
        -0.028999999165534973,
        -0.13311700522899628
      ],
      "type": "VEC3"
    },
    {
      "bufferView": 2,
      "byteOffset": 634728,
      "componentType": 5126,
      "count": 9456,
      "max": [
        0.9999876618385315,
        0.9994113445281982,
        0.9999944567680359
      ],
      "min": [
        -0.9999996423721313,
        -0.9994269013404846,
        -0.9999983310699463
      ],
      "type": "VEC3"
    },
    {
      "bufferView": 0,
      "byteOffset": 509304,
      "componentType": 5125,
      "count": 28056,
      "type": "SCALAR"
    },
    {
      "bufferView": 2,
      "byteOffset": 748200,
      "componentType": 5126,
      "count": 1936,
      "max": [
        0.13807299733161926,
        -0.02018759958446026,
        0.1691969931125641
      ],
      "min": [
        -0.15298500657081604,
        -0.02804410085082054,
        -0.13311700522899628
      ],
      "type": "VEC3"
    },
    {
      "bufferView": 2,
      "byteOffset": 771432,
      "componentType": 5126,
      "count": 1936,
      "max": [
        0.9501841068267822,
        0.9994269013404846,
        0.9348492622375488
      ],
      "min": [
        -0.9636921286582947,
        -0.9994113445281982,
        -0.931941568851471
      ],
      "type": "VEC3"
    },
    {
      "bufferView": 0,
      "byteOffset": 621528,
      "componentType": 5125,
      "count": 5688,
      "type": "SCALAR"
    },
    {
      "bufferView": 2,
      "byteOffset": 794664,
      "componentType": 5126,
      "count": 7458,
      "max": [
        0.008999999612569809,
        0.01924929954111576,
        -0.05703059956431389
      ],
      "min": [
        -0.008999999612569809,
        0.007086640223860741,
        -0.07442840188741684
      ],
      "type": "VEC3"
    },
    {
      "bufferView": 2,
      "byteOffset": 884160,
      "componentType": 5126,
      "count": 7458,
      "max": [
        0.999904215335846,
        0.9999890923500061,
        0.9997628927230835
      ],
      "min": [
        -0.999904215335846,
        -0.9999607801437378,
        -0.9999899864196777
      ],
      "type": "VEC3"
    },
    {
      "bufferView": 0,
      "byteOffset": 644280,
      "componentType": 5125,
      "count": 38310,
      "type": "SCALAR"
    },
    {
      "bufferView": 2,
      "byteOffset": 973656,
      "componentType": 5126,
      "count": 9898,
      "max": [
        0.11014699935913086,
        0.006782500073313713,
        0.1184149980545044
      ],
      "min": [
        -0.11049900203943253,
        -0.015957999974489212,
        -0.08591099828481674
      ],
      "type": "VEC3"
    },
    {
      "bufferView": 2,
      "byteOffset": 1092432,
      "componentType": 5126,
      "count": 9898,
      "max": [
        1.0,
        1.0,
        1.0
      ],
      "min": [
        -1.0,
        -1.0,
        -1.0
      ],
      "type": "VEC3"
    },
    {
      "bufferView": 0,
      "byteOffset": 797520,
      "componentType": 5125,
      "count": 29550,
      "type": "SCALAR"
    },
    {
      "bufferView": 2,
      "byteOffset": 1211208,
      "componentType": 5126,
      "count": 9491,
      "max": [
        0.08988430351018906,
        0.03099999949336052,
        0.10245099663734436
      ],
      "min": [
        -0.08990199863910675,
        -0.014764600433409214,
        -0.07278670370578766
      ],
      "type": "VEC3"
    },
    {
      "bufferView": 2,
      "byteOffset": 1325100,
      "componentType": 5126,
      "count": 9491,
      "max": [
        1.0,
        1.0,
        1.0
      ],
      "min": [
        -1.0,
        -1.0,
        -1.0
      ],
      "type": "VEC3"
    },
    {
      "bufferView": 0,
      "byteOffset": 915720,
      "componentType": 5125,
      "count": 28122,
      "type": "SCALAR"
    },
    {
      "bufferView": 2,
      "byteOffset": 1438992,
      "componentType": 5126,
      "count": 6468,
      "max": [
        0.11114700138568878,
        0.03099999949336052,
        0.1194159984588623
      ],
      "min": [
        -0.11150000244379044,
        -0.015517299994826317,
        -0.08691100031137466
      ],
      "type": "VEC3"
    },
    {
      "bufferView": 2,
      "byteOffset": 1516608,
      "componentType": 5126,
      "count": 6468,
      "max": [
        0.9999998807907104,
        1.0,
        0.9999913573265076
      ],
      "min": [
        -0.9999977350234985,
        -0.999499499797821,
        -0.9999983310699463
      ],
      "type": "VEC3"
    },
    {
      "bufferView": 0,
      "byteOffset": 1028208,
      "componentType": 5125,
      "count": 19044,
      "type": "SCALAR"
    },
    {
      "bufferView": 2,
      "byteOffset": 1594224,
      "componentType": 5126,
      "count": 38004,
      "max": [
        0.1111460030078888,
        0.03099999949336052,
        0.1194159984588623
      ],
      "min": [
        -0.11150000244379044,
        0.010413399897515774,
        -0.08691070228815079
      ],
      "type": "VEC3"
    },
    {
      "bufferView": 2,
      "byteOffset": 2050272,
      "componentType": 5126,
      "count": 38004,
      "max": [
        0.9999989867210388,
        0.9719949960708618,
        0.9999850988388062
      ],
      "min": [
        -0.9999972581863403,
        -0.00015054606774356216,
        -0.9999970197677612
      ],
      "type": "VEC3"
    },
    {
      "bufferView": 0,
      "byteOffset": 1104384,
      "componentType": 5125,
      "count": 219480,
      "type": "SCALAR"
    },
    {
      "bufferView": 2,
      "byteOffset": 2506320,
      "componentType": 5126,
      "count": 6884,
      "max": [
        0.10877899825572968,
        0.03099999949336052,
        0.11703100055456161
      ],
      "min": [
        -0.1091340035200119,
        -0.01600000075995922,
        -0.08441700041294098
      ],
      "type": "VEC3"
    },
    {
      "bufferView": 2,
      "byteOffset": 2588928,
      "componentType": 5126,
      "count": 6884,
      "max": [
        1.0,
        1.0,
        1.0
      ],
      "min": [
        -1.0,
        -1.0,
        -1.0
      ],
      "type": "VEC3"
    },
    {
      "bufferView": 0,
      "byteOffset": 1982304,
      "componentType": 5125,
      "count": 20205,
      "type": "SCALAR"
    },
    {
      "bufferView": 2,
      "byteOffset": 2671536,
      "componentType": 5126,
      "count": 4063,
      "max": [
        0.05577680096030235,
        -0.003969999961555004,
        0.07599999755620956
      ],
      "min": [
        -0.05577680096030235,
        -0.01600000075995922,
        -0.07599999755620956
      ],
      "type": "VEC3"
    },
    {
      "bufferView": 2,
      "byteOffset": 2720292,
      "componentType": 5126,
      "count": 4063,
      "max": [
        1.0,
        1.1827699407196093e-16,
        1.0
      ],
      "min": [
        -1.0,
        -1.0,
        -1.0
      ],
      "type": "VEC3"
    },
    {
      "bufferView": 0,
      "byteOffset": 2063124,
      "componentType": 5125,
      "count": 11691,
      "type": "SCALAR"
    }
  ],
  "asset": {
    "extras": {
      "author": "chwashere123 (https://sketchfab.com/chwashere123)",
      "license": "CC-BY-4.0 (http://creativecommons.org/licenses/by/4.0/)",
      "source": "https://sketchfab.com/3d-models/rc-drone-869b5e179f464092be95cdcac5d52f4e",
      "title": "RC Drone"
    },
    "generator": "Sketchfab-12.66.0",
    "version": "2.0"
  },
  "bufferViews": [
    {
      "buffer": 0,
      "byteLength": 2109888,
      "name": "floatBufferViews",
      "target": 34963
    },
    {
      "buffer": 0,
      "byteLength": 165920,
      "byteOffset": 2109888,
      "byteStride": 8,
      "name": "floatBufferViews",
      "target": 34962
    },
    {
      "buffer": 0,
      "byteLength": 2769048,
      "byteOffset": 2275808,
      "byteStride": 12,
      "name": "floatBufferViews",
      "target": 34962
    }
  ],
  "buffers": [
    {
      "byteLength": 5044856,
      "uri": "scene.bin"
    }
  ],
  "images": [
    {
      "uri": "textures/0.701961_0.701961_0.701961_0.000000_0.000000_baseColor.jpeg"
    },
    {
      "uri": "textures/0.701961_0.701961_0.701961_0.000000_0.000000_metallicRoughness.png"
    }
  ],
  "materials": [
    {
      "doubleSided": true,
      "name": "0.000000_0.039216_0.078431_0.000000_0.000000",
      "pbrMetallicRoughness": {
        "baseColorFactor": [
          8.688161341591413e-05,
          0.00850122158633435,
          0.014705161779964905,
          1.0
        ],
        "metallicFactor": 0.0,
        "roughnessFactor": 0.025397061863819292
      }
    },
    {
      "doubleSided": true,
      "name": "0.015686_0.000000_0.058824_0.000000_0.000000",
      "pbrMetallicRoughness": {
        "baseColorFactor": [
          0.01648157836359283,
          0.01648157836359283,
          0.01648157836359283,
          1.0
        ],
        "metallicFactor": 0.0
      }
    },
    {
      "doubleSided": true,
      "name": "0.090196_0.086275_0.086275_0.000000_0.000000",
      "pbrMetallicRoughness": {
        "baseColorFactor": [
          0.0122592169,
          0.0119977328,
          0.0119977328,
          1.0
        ],
        "metallicFactor": 0.0
      }
    },
    {
      "doubleSided": true,
      "name": "0.188235_0.188235_0.188235_0.000000_0.000000",
      "pbrMetallicRoughness": {
        "baseColorFactor": [
          0.03433980680868217,
          0.03310476657088505,
          0.03310476657088505,
          1.0
        ],
        "metallicFactor": 0.0
      }
    },
    {
      "doubleSided": true,
      "name": "0.254902_0.254902_0.254902_0.000000_0.000000",
      "pbrMetallicRoughness": {
        "baseColorFactor": [
          0.0337517931,
          0.0329127394,
          0.0329127394,
          1.0
        ],
        "metallicFactor": 0.0
      }
    },
    {
      "doubleSided": true,
      "name": "0.701961_0.701961_0.701961_0.000000_0.000000",
      "pbrMetallicRoughness": {
        "baseColorTexture": {
          "index": 0
        },
        "metallicFactor": 0.9137971397,
        "metallicRoughnessTexture": {
          "index": 1
        },
        "roughnessFactor": 0.5428817692
      }
    },
    {
      "doubleSided": true,
      "name": "0.984314_0.925490_0.925490_0.000000_0.000000",
      "pbrMetallicRoughness": {
        "metallicFactor": 0.0
      }
    }
  ],
  "meshes": [
    {
      "name": "Object_0",
      "primitives": [
        {
          "attributes": {
            "NORMAL": 1,
            "POSITION": 0
          },
          "indices": 2,
          "material": 0,
          "mode": 4
        }
      ]
    },
    {
      "name": "Object_1",
      "primitives": [
        {
          "attributes": {
            "NORMAL": 4,
            "POSITION": 3,
            "TEXCOORD_0": 5
          },
          "indices": 6,
          "material": 5,
          "mode": 4
        }
      ]
    },
    {
      "name": "Object_2",
      "primitives": [
        {
          "attributes": {
            "NORMAL": 8,
            "POSITION": 7
          },
          "indices": 9,
          "material": 1,
          "mode": 4
        }
      ]
    },
    {
      "name": "Object_3",
      "primitives": [
        {
          "attributes": {
            "NORMAL": 11,
            "POSITION": 10
          },
          "indices": 12,
          "material": 2,
          "mode": 4
        }
      ]
    },
    {
      "name": "Object_4",
      "primitives": [
        {
          "attributes": {
            "NORMAL": 14,
            "POSITION": 13
          },
          "indices": 15,
          "material": 2,
          "mode": 4
        }
      ]
    },
    {
      "name": "Object_5",
      "primitives": [
        {
          "attributes": {
            "NORMAL": 17,
            "POSITION": 16
          },
          "indices": 18,
          "material": 3,
          "mode": 4
        }
      ]
    },
    {
      "name": "Object_6",
      "primitives": [
        {
          "attributes": {
            "NORMAL": 20,
            "POSITION": 19
          },
          "indices": 21,
          "material": 4,
          "mode": 4
        }
      ]
    },
    {
      "name": "Object_7",
      "primitives": [
        {
          "attributes": {
            "NORMAL": 23,
            "POSITION": 22
          },
          "indices": 24,
          "material": 4,
          "mode": 4
        }
      ]
    },
    {
      "name": "Object_8",
      "primitives": [
        {
          "attributes": {
            "NORMAL": 26,
            "POSITION": 25
          },
          "indices": 27,
          "material": 4,
          "mode": 4
        }
      ]
    },
    {
      "name": "Object_9",
      "primitives": [
        {
          "attributes": {
            "NORMAL": 29,
            "POSITION": 28
          },
          "indices": 30,
          "material": 4,
          "mode": 4
        }
      ]
    },
    {
      "name": "Object_10",
      "primitives": [
        {
          "attributes": {
            "NORMAL": 32,
            "POSITION": 31
          },
          "indices": 33,
          "material": 4,
          "mode": 4
        }
      ]
    },
    {
      "name": "Object_11",
      "primitives": [
        {
          "attributes": {
            "NORMAL": 35,
            "POSITION": 34
          },
          "indices": 36,
          "material": 6,
          "mode": 4
        }
      ]
    }
  ],
  "nodes": [
    {
      "children": [
        1
      ],
      "matrix": [
        1.0,
        0.0,
        0.0,
        0.0,
        0.0,
        -0.9999468326568604,
        -0.01031285244971536,
        0.0,
        0.0,
        0.01031285244971536,
        -0.9999468326568604,
        0.0,
        0.0,
        0.016697503626346585,
        0.019183231517672542,
        1.0
      ],
      "name": "Sketchfab_model"
    },
    {
      "children": [
        2,
        3,
        4,
        5,
        6,
        7,
        8,
        9,
        10,
        11,
        12,
        13
      ],
      "name": "Assembly 1.obj.cleaner.materialmerger.gles"
    },
    {
      "mesh": 0,
      "name": "Object_2"
    },
    {
      "mesh": 1,
      "name": "Object_3"
    },
    {
      "mesh": 2,
      "name": "Object_4"
    },
    {
      "mesh": 3,
      "name": "Object_5"
    },
    {
      "mesh": 4,
      "name": "Object_6"
    },
    {
      "mesh": 5,
      "name": "Object_7"
    },
    {
      "mesh": 6,
      "name": "Object_8"
    },
    {
      "mesh": 7,
      "name": "Object_9"
    },
    {
      "mesh": 8,
      "name": "Object_10"
    },
    {
      "mesh": 9,
      "name": "Object_11"
    },
    {
      "mesh": 10,
      "name": "Object_12"
    },
    {
      "mesh": 11,
      "name": "Object_13"
    }
  ],
  "samplers": [
    {
      "magFilter": 9729,
      "minFilter": 9987,
      "wrapS": 10497,
      "wrapT": 10497
    }
  ],
  "scene": 0,
  "scenes": [
    {
      "name": "Sketchfab_Scene",
      "nodes": [
        0
      ]
    }
  ],
  "textures": [
    {
      "sampler": 0,
      "source": 0
    },
    {
      "sampler": 0,
      "source": 1
    }
  ]
}
