<svg width="21" height="21" viewBox="0 0 21 21" fill="none" xmlns="http://www.w3.org/2000/svg">
<path fill-rule="evenodd" clip-rule="evenodd" d="M10.5 0.266113C4.70138 0.266113 0 4.96661 0 10.7661C0 15.4054 3.00825 19.3411 7.18025 20.7297C7.70525 20.8269 7.89775 20.5022 7.89775 20.2249C7.89775 19.9746 7.88813 19.1477 7.88375 18.2701C4.963 18.9054 4.34613 17.0311 4.34613 17.0311C3.86838 15.8175 3.18063 15.4946 3.18063 15.4946C2.22775 14.8427 3.25238 14.8567 3.25238 14.8567C4.30675 14.9311 4.8615 15.9391 4.8615 15.9391C5.79775 17.5439 7.31763 17.0801 7.917 16.8115C8.0115 16.1325 8.28363 15.6696 8.58375 15.4071C6.25188 15.142 3.80013 14.2416 3.80013 10.2184C3.80013 9.07211 4.2105 8.13499 4.8825 7.39999C4.77313 7.13486 4.4135 6.06736 4.984 4.62099C4.984 4.62099 5.866 4.33924 7.87238 5.69724C8.70975 5.46449 9.6075 5.34811 10.5 5.34374C11.3925 5.34811 12.2911 5.46449 13.1303 5.69724C15.134 4.33836 16.0151 4.62099 16.0151 4.62099C16.5865 6.06736 16.2269 7.13486 16.1184 7.39999C16.7913 8.13499 17.199 9.07211 17.199 10.2184C17.199 14.2512 14.7429 15.1394 12.4049 15.3992C12.7811 15.7247 13.1171 16.3644 13.1171 17.3435C13.1171 18.7487 13.1049 19.8792 13.1049 20.2249C13.1049 20.504 13.2939 20.8321 13.8259 20.7289C17.9961 19.3385 21.0009 15.4045 21.0009 10.767C21 4.96749 16.2986 0.266113 10.5 0.266113Z" fill="black"/>
<path d="M3.9775 15.3427C3.9547 15.3953 3.8723 15.4111 3.79691 15.3752C3.72064 15.341 3.67768 15.2691 3.70223 15.2174C3.72502 15.1639 3.80743 15.149 3.8837 15.1849C3.95996 15.2182 4.0038 15.2901 3.9775 15.3427Z" fill="black"/>
<path d="M4.40257 15.8172C4.3526 15.8637 4.25442 15.8418 4.18779 15.769C4.11854 15.6954 4.10626 15.5972 4.15711 15.5507C4.20883 15.5043 4.30351 15.5262 4.37277 15.5998C4.44202 15.6726 4.45517 15.7699 4.40257 15.8172Z" fill="black"/>
<path d="M4.81658 16.422C4.75171 16.4667 4.64651 16.4247 4.58164 16.3317C4.51677 16.2379 4.51677 16.1257 4.58339 16.081C4.64827 16.0363 4.75259 16.0766 4.81834 16.1696C4.88233 16.2642 4.88233 16.3764 4.81658 16.422Z" fill="black"/>
<path d="M5.3837 17.0063C5.32584 17.0703 5.20311 17.0528 5.11369 16.966C5.02164 16.881 4.99622 16.7609 5.05408 16.6969C5.11281 16.6329 5.23642 16.6513 5.32672 16.7372C5.41789 16.8222 5.44507 16.9432 5.3837 17.0063Z" fill="black"/>
<path d="M6.16619 17.3443C6.14081 17.4266 6.02269 17.4642 5.90369 17.4292C5.78469 17.3933 5.70682 17.2971 5.73132 17.2139C5.75582 17.1308 5.87481 17.0923 5.99469 17.1299C6.11281 17.1649 6.19069 17.2612 6.16619 17.3443Z" fill="black"/>
<path d="M7.02547 17.4073C7.0281 17.494 6.92747 17.5657 6.80235 17.5675C6.67722 17.5701 6.57485 17.5001 6.57397 17.4152C6.57397 17.3277 6.67285 17.2568 6.79797 17.2542C6.9231 17.2516 7.02547 17.3216 7.02547 17.4073Z" fill="black"/>
<path d="M7.82508 17.2717C7.83996 17.3557 7.75333 17.4432 7.62908 17.4659C7.50746 17.4887 7.39458 17.4362 7.37883 17.3522C7.36396 17.2656 7.45233 17.1789 7.57396 17.1562C7.69733 17.1343 7.80933 17.1851 7.82508 17.2717Z" fill="black"/>
</svg>
