<svg width="21" height="21" viewBox="0 0 21 21" fill="none" xmlns="http://www.w3.org/2000/svg">
<g clip-path="url(#clip0_1239_17)">
<path d="M10.1523 2.22583C12.8629 2.22583 13.1844 2.23598 14.2546 2.28505C15.3612 2.33581 16.5008 2.58792 17.3071 3.39418C18.1209 4.20805 18.3654 5.33665 18.4162 6.44663C18.4653 7.51684 18.4754 7.83833 18.4754 10.549C18.4754 13.2596 18.4653 13.5811 18.4162 14.6513C18.3663 15.752 18.1082 16.9026 17.3071 17.7038C16.4932 18.5177 15.3654 18.7622 14.2546 18.8129C13.1844 18.862 12.8629 18.8721 10.1523 18.8721C7.4416 18.8721 7.12012 18.862 6.0499 18.8129C4.95769 18.763 3.79187 18.499 2.99745 17.7038C2.18781 16.8941 1.93908 15.7546 1.88832 14.6513C1.83925 13.5811 1.8291 13.2596 1.8291 10.549C1.8291 7.83833 1.83925 7.51684 1.88832 6.44663C1.93824 5.35018 2.19881 4.19283 2.99745 3.39418C3.80963 2.582 4.94246 2.33581 6.0499 2.28505C7.12012 2.23598 7.4416 2.22583 10.1523 2.22583ZM10.1523 0.396729C7.39507 0.396729 7.04905 0.408573 5.96614 0.457642C4.39677 0.529554 2.8384 0.966101 1.70389 2.10062C0.565142 3.23936 0.132825 4.79435 0.0609135 6.36287C0.0118443 7.44578 0 7.7918 0 10.549C0 13.3062 0.0118443 13.6522 0.0609135 14.7351C0.132825 16.3028 0.571064 17.8654 1.70389 18.9974C2.84179 20.1353 4.39931 20.5684 5.96614 20.6403C7.04905 20.6894 7.39507 20.7012 10.1523 20.7012C12.9094 20.7012 13.2555 20.6894 14.3384 20.6403C15.9069 20.5684 17.467 20.131 18.6006 18.9974C19.7402 17.8578 20.1717 16.3036 20.2436 14.7351C20.2927 13.6522 20.3045 13.3062 20.3045 10.549C20.3045 7.7918 20.2927 7.44578 20.2436 6.36287C20.1717 4.7935 19.7343 3.23428 18.6006 2.10062C17.4644 0.964409 15.9027 0.528708 14.3384 0.457642C13.2555 0.408573 12.9094 0.396729 10.1523 0.396729Z" fill="black"/>
<path d="M10.1523 5.33569C7.27326 5.33569 4.93909 7.66987 4.93909 10.5489C4.93909 13.4279 7.27326 15.7621 10.1523 15.7621C13.0313 15.7621 15.3655 13.4279 15.3655 10.5489C15.3655 7.66987 13.0313 5.33569 10.1523 5.33569ZM10.1523 13.933C8.28341 13.933 6.76819 12.4177 6.76819 10.5489C6.76819 8.68002 8.28341 7.16479 10.1523 7.16479C12.0211 7.16479 13.5364 8.68002 13.5364 10.5489C13.5364 12.4177 12.0211 13.933 10.1523 13.933Z" fill="black"/>
<path d="M15.5719 6.34767C16.2447 6.34767 16.7902 5.80224 16.7902 5.1294C16.7902 4.45657 16.2447 3.91113 15.5719 3.91113C14.8991 3.91113 14.3536 4.45657 14.3536 5.1294C14.3536 5.80224 14.8991 6.34767 15.5719 6.34767Z" fill="black"/>
</g>
<defs>
<clipPath id="clip0_1239_17">
<rect width="20.3045" height="20.3045" fill="white" transform="translate(0 0.396729)"/>
</clipPath>
</defs>
</svg>
