<svg width="21" height="21" viewBox="0 0 21 21" fill="none" xmlns="http://www.w3.org/2000/svg">
<g clip-path="url(#clip0_1239_23)">
<path d="M6.00342 5.39624L13.7699 15.5506H14.9599L7.28179 5.39624H6.00342Z" fill="black"/>
<path d="M10.5 0.00708008C4.70138 0.00708008 0 4.70846 0 10.5071C0 16.3057 4.70138 21.0071 10.5 21.0071C16.2986 21.0071 21 16.3057 21 10.5071C21 4.70846 16.2986 0.00708008 10.5 0.00708008ZM13.1801 16.8351L9.79387 12.412L5.92462 16.8351H3.77388L8.79025 11.1003L3.5 4.17908H7.92925L10.9865 8.22246L14.5241 4.17908H16.6723L11.9814 9.53933L17.5 16.8342L13.1801 16.8351Z" fill="black"/>
</g>
<defs>
<clipPath id="clip0_1239_23">
<rect width="21" height="21" fill="white" transform="translate(0 0.00708008)"/>
</clipPath>
</defs>
</svg>
